<?xml version="1.0" encoding="UTF-8" standalone="no"?>
<svg
   xmlns:dc="http://purl.org/dc/elements/1.1/"
   xmlns:cc="http://creativecommons.org/ns#"
   xmlns:rdf="http://www.w3.org/1999/02/22-rdf-syntax-ns#"
   xmlns:svg="http://www.w3.org/2000/svg"
   xmlns="http://www.w3.org/2000/svg"
   xmlns:sodipodi="http://sodipodi.sourceforge.net/DTD/sodipodi-0.dtd"
   xmlns:inkscape="http://www.inkscape.org/namespaces/inkscape"
   version="1.1"
   id="Layer_1"
   x="0px"
   y="0px"
   viewBox="0 0 120.2 120.2"
   enable-background="new 0 0 120.2 120.2"
   xml:space="preserve"
   sodipodi:docname="Bus-1Seat.svg"
   inkscape:version="1.0 (4035a4fb49, 2020-05-01)"><metadata
   id="metadata39"><rdf:RDF><cc:Work
       rdf:about=""><dc:format>image/svg+xml</dc:format><dc:type
         rdf:resource="http://purl.org/dc/dcmitype/StillImage" /><dc:title></dc:title></cc:Work></rdf:RDF></metadata><defs
   id="defs37">
	
	
	
	
	
	
	
	
	
	
	
	
	
	
</defs><sodipodi:namedview
   inkscape:document-rotation="0"
   pagecolor="#ffffff"
   bordercolor="#666666"
   borderopacity="1"
   objecttolerance="10"
   gridtolerance="10"
   guidetolerance="10"
   inkscape:pageopacity="0"
   inkscape:pageshadow="2"
   inkscape:window-width="1920"
   inkscape:window-height="1017"
   id="namedview35"
   showgrid="false"
   inkscape:zoom="7.0715476"
   inkscape:cx="60.099998"
   inkscape:cy="60.099998"
   inkscape:window-x="1912"
   inkscape:window-y="-8"
   inkscape:window-maximized="1"
   inkscape:current-layer="Layer_1" />
<circle
   id="circle8"
   r="3.2"
   cy="49.099998"
   cx="65.599998"
   fill="#0091da" /><path
   id="path16"
   d="m 62.5,55.4 c 0,0 0.7,-2 2.3,-2.2 0,0 1.5,0 1.9,2.2 z"
   fill="#0091da" /><path
   id="path18"
   d="m 77.9,69.7 c 1.7,0 3,1.4 3,3 0,1.6 -1.4,3 -3,3 -1.7,0 -3,-1.4 -3,-3 0,-1.6 1.4,-3 3,-3 m 0,-4 c -3.9,0 -7,3.1 -7,7 0,3.9 3.1,7 7,7 3.9,0 7,-3.1 7,-7 0,-3.9 -3.1,-7 -7,-7 z"
   fill="#0091da" /><path
   id="path20"
   d="m 37,69.7 c 1.7,0 3,1.4 3,3 0,1.6 -1.4,3 -3,3 -1.6,0 -3,-1.4 -3,-3 0,-1.6 1.4,-3 3,-3 m 0,-4 c -3.9,0 -7,3.1 -7,7 0,3.9 3.1,7 7,7 3.9,0 7,-3.1 7,-7 0,-3.9 -3.1,-7 -7,-7 z"
   fill="#0091da" /><path
   id="path22"
   d="M 41.9,65.8"
   fill="#0091da" /><path
   id="path24"
   d="M 32.2,65.8"
   fill="#0091da" /><path
   id="path26"
   d="m 32.2,65.8 h -7.6 v 3.4 c 0,1.3 1.1,2.4 2.4,2.4 h 1.6 c 0.4,-2.4 1.7,-4.5 3.6,-5.8 z"
   fill="#0091da" /><path
   id="path28"
   d="M 90.1,65.8 V 59.7 C 90.1,59 89.8,58.4 89.2,58 L 88,57.2 82.5,40.4 c -0.3,-0.8 -1,-1.5 -1.9,-1.6 L 74.8,38 C 74.5,38 74.3,37.9 74,37.9 H 29.8 c -2.4,0 -4.3,1.9 -4.3,4.3 v 21.9 h 47 v 1.7 H 41.9 c 1.9,1.3 3.2,3.4 3.5,5.9 h 24.2 c 0.5,-4.2 4.1,-7.4 8.4,-7.4 4.3,0 7.8,3.2 8.4,7.4 h 4 c 1.3,0 2.4,-1.1 2.4,-2.4 V 65.9 H 90.1 Z M 37,55.3 H 27.2 V 42.9 H 37 Z m 11.3,0 H 38.5 V 42.9 h 9.8 z m 11.2,0 H 49.7 V 42.9 h 9.8 z m 11.5,0 H 61.2 V 42.9 H 71 Z m 11.9,0 H 75.1 V 42.9 h 3.4 c 0.9,0 1.7,0.6 2.1,1.4 l 3.6,9.1 c 0.3,1 -0.4,1.9 -1.3,1.9 z"
   fill="#0091da" />
<path
   fill="#218FCF"
   d="M98.9,13.7c2.6,0,4.8,2.1,4.8,4.8V99c0,2.6-2.1,4.8-4.8,4.8H18.4c-2.6,0-4.8-2.1-4.8-4.8V18.5  c0-2.6,2.1-4.8,4.8-4.8H98.9 M98.9,11.2H18.4c-4,0-7.3,3.2-7.3,7.3V99c0,4,3.2,7.3,7.3,7.3h80.5c4,0,7.3-3.2,7.3-7.3V18.5  C106.2,14.5,102.9,11.2,98.9,11.2L98.9,11.2z"
   id="path32" />
</svg>
